<svg width="16" height="16" viewBox="0 0 16 16" fill="none" xmlns="http://www.w3.org/2000/svg">
<path d="M10.7565 5.19129C10.8947 5.06724 11.0787 4.99866 11.2695 5.00002C11.4604 5.00138 11.6433 5.07258 11.7795 5.19859C11.9157 5.3246 11.9947 5.49556 11.9997 5.67541C12.0048 5.85526 11.9355 6.02992 11.8065 6.16254L7.89085 10.7783C7.82352 10.8466 7.74226 10.9015 7.65192 10.9396C7.56158 10.9776 7.46403 10.9982 7.36509 10.9999C7.26614 11.0016 7.16785 10.9845 7.07608 10.9496C6.98431 10.9147 6.90094 10.8627 6.83097 10.7968L4.23426 8.34923C4.16195 8.28572 4.10395 8.20913 4.06372 8.12403C4.02349 8.03893 4.00186 7.94707 4.00011 7.85392C3.99837 7.76077 4.01655 7.66824 4.05357 7.58186C4.09059 7.49547 4.14569 7.417 4.21558 7.35112C4.28547 7.28525 4.36872 7.23331 4.46037 7.19842C4.55202 7.16353 4.65019 7.14639 4.74901 7.14804C4.84784 7.14968 4.9453 7.17007 5.03559 7.20799C5.12588 7.24591 5.20713 7.30057 5.27452 7.36873L7.32951 9.30475L10.7378 5.21164C10.744 5.20452 10.7495 5.19773 10.7565 5.19129Z" fill="white"/>
</svg>
