<svg width="34" height="34" viewBox="0 0 34 34" fill="none" xmlns="http://www.w3.org/2000/svg">
<path d="M16.4902 9.4187L9.40394 16.4962C9.27491 16.6308 9.17377 16.7896 9.10631 16.9633C8.96456 17.3079 8.96456 17.6945 9.10631 18.0391C9.17377 18.2129 9.27491 18.3716 9.40394 18.5062L16.4902 25.5837C16.6224 25.7157 16.7792 25.8204 16.9519 25.8918C17.1245 25.9632 17.3096 26 17.4965 26C17.8739 26 18.2358 25.8503 18.5027 25.5837C18.7696 25.3172 18.9195 24.9557 18.9195 24.5787C18.9195 24.2018 18.7696 23.8402 18.5027 23.5737L13.8258 18.9167H24.5827C24.9586 18.9167 25.3191 18.7676 25.5849 18.5021C25.8507 18.2367 26 17.8766 26 17.5012C26 17.1258 25.8507 16.7658 25.5849 16.5003C25.3191 16.2348 24.9586 16.0857 24.5827 16.0857H13.8258L18.5027 11.4287C18.6356 11.2971 18.741 11.1406 18.8129 10.9681C18.8849 10.7956 18.9219 10.6106 18.9219 10.4237C18.9219 10.2368 18.8849 10.0518 18.8129 9.87934C18.741 9.70685 18.6356 9.55029 18.5027 9.4187C18.371 9.28603 18.2142 9.18072 18.0415 9.10886C17.8688 9.037 17.6836 9 17.4965 9C17.3094 9 17.1241 9.037 16.9514 9.10886C16.7787 9.18072 16.622 9.28603 16.4902 9.4187Z" fill="#DDDDDD"/>
</svg>
