<svg width="30" height="30" viewBox="0 0 30 30" fill="none" xmlns="http://www.w3.org/2000/svg">
<path d="M15 3C12.6266 3 10.3066 3.70379 8.33316 5.02236C6.35977 6.34094 4.8217 8.21508 3.91345 10.4078C3.0052 12.6005 2.76756 15.0133 3.23058 17.3411C3.6936 19.6689 4.83649 21.807 6.51472 23.4853C8.19295 25.1635 10.3311 26.3064 12.6589 26.7694C14.9867 27.2324 17.3995 26.9948 19.5922 26.0865C21.7849 25.1783 23.6591 23.6402 24.9776 21.6668C26.2962 19.6934 27 17.3734 27 15C26.9966 11.8184 25.7313 8.76814 23.4816 6.51843C21.2319 4.26872 18.1816 3.00336 15 3ZM15 25.1538C12.9918 25.1538 11.0286 24.5583 9.35883 23.4426C7.68904 22.3269 6.38759 20.7411 5.61907 18.8857C4.85055 17.0303 4.64947 14.9887 5.04126 13.0191C5.43305 11.0494 6.40011 9.24019 7.82015 7.82015C9.24019 6.40011 11.0494 5.43305 13.0191 5.04126C14.9887 4.64947 17.0303 4.85055 18.8857 5.61907C20.7411 6.38759 22.3269 7.68903 23.4426 9.35882C24.5583 11.0286 25.1538 12.9918 25.1538 15C25.1508 17.692 24.08 20.2729 22.1765 22.1765C20.2729 24.08 17.692 25.1508 15 25.1538ZM16.8462 20.5385C16.8462 20.7833 16.7489 21.0181 16.5758 21.1912C16.4027 21.3643 16.1679 21.4615 15.9231 21.4615C15.4334 21.4615 14.9639 21.267 14.6177 20.9208C14.2714 20.5746 14.0769 20.105 14.0769 19.6154V15C13.8321 15 13.5973 14.9027 13.4242 14.7296C13.2511 14.5565 13.1538 14.3217 13.1538 14.0769C13.1538 13.8321 13.2511 13.5973 13.4242 13.4242C13.5973 13.2511 13.8321 13.1538 14.0769 13.1538C14.5666 13.1538 15.0361 13.3483 15.3824 13.6946C15.7286 14.0408 15.9231 14.5104 15.9231 15V19.6154C16.1679 19.6154 16.4027 19.7126 16.5758 19.8857C16.7489 20.0589 16.8462 20.2936 16.8462 20.5385ZM13.1538 9.92308C13.1538 9.64922 13.2351 9.38152 13.3872 9.15382C13.5393 8.92613 13.7556 8.74866 14.0086 8.64386C14.2616 8.53906 14.54 8.51164 14.8086 8.56507C15.0772 8.61849 15.3239 8.75036 15.5175 8.944C15.7112 9.13765 15.843 9.38436 15.8965 9.65295C15.9499 9.92154 15.9225 10.1999 15.8177 10.4529C15.7129 10.706 15.5354 10.9222 15.3077 11.0743C15.08 11.2265 14.8123 11.3077 14.5385 11.3077C14.1712 11.3077 13.8191 11.1618 13.5594 10.9021C13.2997 10.6425 13.1538 10.2903 13.1538 9.92308Z" fill="#DDDDDD"/>
</svg>
