<svg width="16" height="16" viewBox="0 0 16 16" fill="none" xmlns="http://www.w3.org/2000/svg">
<path d="M11.5 8.76C11.8978 8.76 12.2794 8.92436 12.5607 9.21691C12.842 9.50947 13 9.90626 13 10.32V10.84C13 12.8898 11.14 15 8 15C4.86 15 3 12.8898 3 10.84V10.32C3 9.90626 3.15804 9.50947 3.43934 9.21691C3.72064 8.92436 4.10218 8.76 4.5 8.76H11.5ZM8 2C8.72935 2 9.42882 2.30132 9.94454 2.83767C10.4603 3.37403 10.75 4.10148 10.75 4.86C10.75 5.61852 10.4603 6.34597 9.94454 6.88233C9.42882 7.41868 8.72935 7.72 8 7.72C7.27065 7.72 6.57118 7.41868 6.05546 6.88233C5.53973 6.34597 5.25 5.61852 5.25 4.86C5.25 4.10148 5.53973 3.37403 6.05546 2.83767C6.57118 2.30132 7.27065 2 8 2Z" fill="#F8F8F8"/>
</svg>
