<svg width="40" height="40" viewBox="0 0 40 40" fill="none" xmlns="http://www.w3.org/2000/svg">
<path d="M27.9545 4H11.0455C10.1202 4 9.20407 4.18811 8.34928 4.5536C7.49448 4.91909 6.7178 5.4548 6.06357 6.13013C4.74229 7.49403 4 9.34388 4 11.2727V28.7273C4 29.6823 4.18224 30.6281 4.5363 31.5104C4.89037 32.3928 5.40933 33.1945 6.06357 33.8699C7.38484 35.2338 9.17688 36 11.0455 36H27.9545C28.8798 36 29.7959 35.8119 30.6507 35.4464C31.5055 35.0809 32.2822 34.5452 32.9364 33.8699C33.5907 33.1945 34.1096 32.3928 34.4637 31.5104C34.8178 30.6281 35 29.6823 35 28.7273V11.2727C35 10.3177 34.8178 9.37194 34.4637 8.48957C34.1096 7.60721 33.5907 6.80547 32.9364 6.13013C32.2822 5.4548 31.5055 4.91909 30.6507 4.5536C29.7959 4.18811 28.8798 4 27.9545 4ZM11.0455 6.90909H27.9545C29.0757 6.90909 30.1509 7.36883 30.9437 8.18717C31.7364 9.00551 32.1818 10.1154 32.1818 11.2727V19.1709L31.8859 18.8509C30.8718 17.8081 29.4987 17.2226 28.0673 17.2226C26.6359 17.2226 25.2628 17.8081 24.2486 18.8509L23.4314 19.7091C23.3004 19.8454 23.1445 19.9536 22.9728 20.0275C22.8011 20.1013 22.6169 20.1393 22.4309 20.1393C22.2449 20.1393 22.0607 20.1013 21.889 20.0275C21.7173 19.9536 21.5614 19.8454 21.4305 19.7091L17.795 15.9418C16.7809 14.899 15.4078 14.3136 13.9764 14.3136C12.5449 14.3136 11.1719 14.899 10.1577 15.9418L6.81818 19.4036V11.2727C6.81818 10.1154 7.26355 9.00551 8.05632 8.18717C8.84909 7.36883 9.92431 6.90909 11.0455 6.90909ZM27.9545 33.0909H11.0455C9.92431 33.0909 8.84909 32.6312 8.05632 31.8128C7.26355 30.9945 6.81818 29.8846 6.81818 28.7273V23.5055L12.1586 18.0073C12.396 17.7584 12.6789 17.5607 12.991 17.4257C13.3031 17.2908 13.638 17.2213 13.9764 17.2213C14.3147 17.2213 14.6497 17.2908 14.9617 17.4257C15.2738 17.5607 15.5568 17.7584 15.7941 18.0073L19.5 21.76C20.2926 22.5772 21.367 23.0362 22.4873 23.0362C23.6075 23.0362 24.6819 22.5772 25.4745 21.76L26.3059 20.9164C26.5432 20.6674 26.8262 20.4698 27.1383 20.3348C27.4503 20.1999 27.7853 20.1304 28.1236 20.1304C28.462 20.1304 28.7969 20.1999 29.109 20.3348C29.4211 20.4698 29.704 20.6674 29.9414 20.9164L32.1818 23.2727V28.7273C32.1818 29.8846 31.7364 30.9945 30.9437 31.8128C30.1509 32.6312 29.0757 33.0909 27.9545 33.0909Z" fill="white"/>
</svg>
