<svg width="40" height="40" viewBox="0 0 40 40" fill="none" xmlns="http://www.w3.org/2000/svg">
<path d="M18.9472 4.00007C18.7269 4.00007 18.5063 4.00388 18.2857 4.01188C17.1091 4.05623 15.924 4.23475 14.7652 4.54764C6.31418 6.82963 1.27779 15.6271 3.54223 24.1436C5.80667 32.6601 14.5365 37.7356 22.9875 35.4536C31.4385 33.1716 36.4749 24.3741 34.2105 15.8576C34.168 15.6551 34.0851 15.4635 33.9668 15.2944C33.8485 15.1253 33.6972 14.9822 33.5222 14.8739C33.3473 14.7656 33.1523 14.6944 32.9491 14.6645C32.7459 14.6346 32.5388 14.6468 32.3404 14.7002C32.1421 14.7536 31.9566 14.8472 31.7952 14.9752C31.6339 15.1032 31.5001 15.263 31.4021 15.4448C31.304 15.6266 31.2438 15.8266 31.2249 16.0327C31.2061 16.2387 31.2291 16.4465 31.2925 16.6433C33.1339 23.5689 29.0801 30.6573 22.2078 32.513C15.3355 34.3687 8.30164 30.2834 6.46018 23.3579C4.6188 16.4323 8.67264 9.34393 15.5449 7.4882C19.2988 6.47457 23.3091 7.22797 26.4489 9.5359C26.6094 9.65394 26.7915 9.73894 26.9847 9.78607C27.1779 9.8332 27.3783 9.84153 27.5747 9.81058C27.7711 9.77963 27.9595 9.71 28.1291 9.60568C28.2988 9.50136 28.4464 9.36439 28.5635 9.20258C28.6807 9.04077 28.765 8.85728 28.8118 8.66261C28.8585 8.46794 28.8668 8.26591 28.8361 8.06802C28.8054 7.87014 28.7363 7.68027 28.6328 7.50929C28.5293 7.33832 28.3933 7.18958 28.2328 7.07154C25.5068 5.06785 22.2517 4.01401 18.9472 4.00007ZM35.4155 5.13109C35.0229 5.15297 34.6543 5.32804 34.3877 5.61918C30.4017 9.82181 22.4356 18.5051 18.0139 23.2032L12.6978 18.4768C12.5489 18.3439 12.3754 18.2419 12.1873 18.1765C11.9993 18.1112 11.8003 18.0838 11.6017 18.096C11.4032 18.1081 11.2089 18.1596 11.0301 18.2474C10.8513 18.3352 10.6914 18.4577 10.5595 18.6077C10.4276 18.7578 10.3264 18.9326 10.2616 19.1222C10.1967 19.3117 10.1696 19.5122 10.1816 19.7123C10.1937 19.9124 10.2448 20.1081 10.3319 20.2883C10.419 20.4685 10.5405 20.6297 10.6895 20.7626L17.1161 26.4771C17.4102 26.7396 17.7942 26.8765 18.1867 26.8587C18.5791 26.8409 18.9494 26.6699 19.2189 26.3819C23.4472 21.9238 32.4006 12.114 36.5732 7.7145C36.7844 7.4951 36.9252 7.2168 36.9774 6.91571C37.0296 6.61462 36.9908 6.30466 36.866 6.02609C36.7411 5.74753 36.5361 5.51322 36.2774 5.35361C36.0187 5.19401 35.7184 5.11649 35.4155 5.13109Z" fill="white"/>
</svg>
