<svg width="40" height="40" viewBox="0 0 40 40" fill="none" xmlns="http://www.w3.org/2000/svg">
<path d="M20 3C12.2827 3 6 9.07406 6 16.5403C6 21.9338 9.26933 26.76 14.352 28.9256L19.136 35.5617C19.3333 35.835 19.6587 36 20 36C20 36 20 36 20.0053 36C20.3467 36 20.672 35.835 20.8693 35.5617L25.648 28.9256C30.7307 26.76 34 21.9338 34 16.5403C34 9.07406 27.7227 3 20 3ZM20 23.9137C15.7867 23.9137 12.3733 20.6086 12.3733 16.5403C12.3733 12.4669 15.7867 9.16687 20 9.16687C24.2133 9.16687 27.6267 12.4669 27.6267 16.5403C27.6267 20.6086 24.2133 23.9137 20 23.9137Z" fill="white"/>
</svg>
